<svg width="123" height="38" viewBox="0 0 123 38" fill="none" xmlns="http://www.w3.org/2000/svg">
<path d="M44.0174 25.6728C43.3598 26.5076 42.3943 27.1526 41.1211 27.6079C39.8563 28.0548 38.4272 28.2656 36.8336 28.2403C35.5772 28.2319 34.4727 27.9578 33.5199 27.4182C32.5671 26.8701 31.8166 26.086 31.2686 25.0657C30.7205 24.0455 30.4085 22.8819 30.3327 21.575C30.2483 20.3608 30.3748 18.9358 30.7121 17.3001C31.0578 15.6559 31.6438 14.2182 32.4701 12.9872C33.3049 11.7477 34.304 10.8245 35.4676 10.2174C36.6312 9.60185 37.9213 9.30674 39.3378 9.33203C41.2602 9.36576 42.7653 9.90961 43.853 10.9636C44.9407 12.0091 45.5605 13.51 45.7122 15.4662L42.1456 15.4535C42.0528 14.4248 41.7788 13.666 41.3235 13.1769C40.8682 12.6879 40.1894 12.4265 39.2872 12.3928C37.7273 12.3422 36.4963 13.0294 35.5941 14.4543C34.7003 15.8709 34.1902 17.9282 34.0637 20.6264C33.9794 22.0682 34.1986 23.1855 34.7214 23.978C35.2526 24.7706 36.0578 25.1754 37.1371 25.1922C38.3934 25.2259 39.4643 24.9266 40.3496 24.2942L40.9693 21.1197H37.6051L38.0983 18.3245H45.1304L44.0174 25.6728ZM54.1103 14.0623C55.316 14.0791 56.3531 14.3911 57.2216 14.9982C58.0985 15.5968 58.7393 16.4274 59.1441 17.4898C59.5572 18.5438 59.7048 19.7158 59.5867 21.0058C59.3928 23.1812 58.6339 24.9435 57.3101 26.2926C55.9948 27.6332 54.3674 28.2867 52.4281 28.253C51.2393 28.2361 50.2106 27.9325 49.3421 27.3423C48.4736 26.7437 47.8328 25.9173 47.4197 24.8634C47.0065 23.8094 46.8589 22.6458 46.977 21.3726C47.1962 19.1129 47.9635 17.3169 49.2789 15.9847C50.5942 14.6525 52.2047 14.0117 54.1103 14.0623ZM50.5057 22.6753C50.5226 23.4848 50.7123 24.1256 51.0748 24.5978C51.4374 25.0615 51.9475 25.3018 52.6052 25.3187C53.7013 25.3524 54.5614 24.8507 55.1853 23.8136C55.8093 22.7681 56.1002 21.3979 56.058 19.7031C56.0243 18.8937 55.8261 18.2486 55.4636 17.768C55.1094 17.279 54.5993 17.026 53.9332 17.0092C52.8708 16.9754 52.0192 17.4771 51.3784 18.5142C50.746 19.5429 50.4551 20.9299 50.5057 22.6753ZM68.4527 14.0623C69.6585 14.0791 70.6956 14.3911 71.5641 14.9982C72.441 15.5968 73.0818 16.4274 73.4865 17.4898C73.8997 18.5438 74.0472 19.7158 73.9292 21.0058C73.7353 23.1812 72.9764 24.9435 71.6526 26.2926C70.3372 27.6332 68.7099 28.2867 66.7706 28.253C65.5817 28.2361 64.553 27.9325 63.6846 27.3423C62.8161 26.7437 62.1753 25.9173 61.7621 24.8634C61.349 23.8094 61.2014 22.6458 61.3195 21.3726C61.5387 19.1129 62.306 17.3169 63.6213 15.9847C64.9367 14.6525 66.5472 14.0117 68.4527 14.0623ZM64.8482 22.6753C64.865 23.4848 65.0547 24.1256 65.4173 24.5978C65.7799 25.0615 66.29 25.3018 66.9477 25.3187C68.0438 25.3524 68.9038 24.8507 69.5278 23.8136C70.1517 22.7681 70.4426 21.3979 70.4005 19.7031C70.3668 18.8937 70.1686 18.2486 69.806 17.768C69.4519 17.279 68.9418 17.026 68.2757 17.0092C67.2133 16.9754 66.3617 17.4771 65.7208 18.5142C65.0885 19.5429 64.7976 20.9299 64.8482 22.6753ZM78.7353 28H75.1434L78.5203 8.57317H82.0996L78.7353 28ZM94.9117 21.1956C94.7346 22.629 94.3594 23.9022 93.786 25.0151C93.2127 26.1281 92.5002 26.9545 91.6486 27.4941C90.797 28.0337 89.8526 28.2909 88.8155 28.2656C87.4917 28.2319 86.4462 27.7386 85.6789 26.7858L84.4268 33.2614H80.8601L84.1359 14.3152L87.4243 14.3026L87.184 15.6812C88.1705 14.5682 89.3341 14.0285 90.6747 14.0623C92.0154 14.096 93.0567 14.585 93.7987 15.5294C94.5407 16.4653 94.937 17.7385 94.9876 19.349C95.0044 19.8718 94.9791 20.4873 94.9117 21.1956ZM91.3703 20.9299L91.4462 19.7158C91.4631 18.8979 91.3113 18.2486 90.9909 17.768C90.6789 17.2874 90.2194 17.0387 89.6123 17.0218C88.5752 16.9881 87.7194 17.4265 87.0448 18.3372L86.0204 23.978C86.3323 24.8296 87.0027 25.2723 88.0313 25.306C88.8914 25.3313 89.6081 24.9983 90.1815 24.3069C90.7548 23.6155 91.1511 22.4898 91.3703 20.9299ZM103.967 24.1425C104.102 23.4679 103.634 22.9789 102.564 22.6753L101.413 22.3844C98.6891 21.634 97.3653 20.3102 97.4412 18.4131C97.4834 17.123 98.0525 16.0732 99.1487 15.2638C100.253 14.4459 101.581 14.0454 103.133 14.0623C104.676 14.0791 105.924 14.4881 106.876 15.2891C107.829 16.0901 108.314 17.1567 108.331 18.4889L104.79 18.4763C104.806 17.3043 104.225 16.7098 103.044 16.693C102.488 16.693 102.003 16.8321 101.59 17.1104C101.185 17.3886 100.936 17.7638 100.843 18.236C100.717 18.9105 101.227 19.3869 102.374 19.6652L102.88 19.779C104.043 20.0573 104.933 20.3777 105.548 20.7402C106.164 21.0944 106.636 21.537 106.965 22.0682C107.302 22.5994 107.458 23.236 107.433 23.978C107.408 24.8465 107.125 25.6054 106.585 26.2546C106.054 26.9039 105.321 27.4056 104.385 27.7597C103.457 28.1138 102.479 28.2782 101.451 28.253C99.9328 28.2361 98.668 27.8019 97.6562 26.9502C96.6444 26.0902 96.1301 24.9814 96.1132 23.6239L99.4775 23.6492C99.5112 24.9561 100.211 25.618 101.577 25.6349C102.235 25.6349 102.774 25.5 103.196 25.2302C103.626 24.9603 103.883 24.5978 103.967 24.1425ZM113.719 22.3465H110.747L112.543 9.58498H116.349L113.719 22.3465ZM109.57 26.3432C109.553 25.7867 109.731 25.3187 110.102 24.9393C110.473 24.5514 110.945 24.349 111.518 24.3322C112.058 24.3153 112.526 24.4839 112.922 24.8381C113.318 25.1838 113.525 25.6391 113.542 26.204C113.559 26.7605 113.382 27.2327 113.011 27.6206C112.64 28.0084 112.163 28.2108 111.581 28.2277C110.991 28.2277 110.506 28.0422 110.127 27.6712C109.756 27.3002 109.57 26.8575 109.57 26.3432Z" fill="#5000CA"/>
<circle cx="10.7927" cy="18.7927" r="10.7927" fill="#5000CA"/>
<circle cx="9.76477" cy="17.7648" r="8.73693" fill="white"/>
</svg>
